<?xml version="1.0" standalone="no"?>
<svg xmlns="http://www.w3.org/2000/svg" viewBox="0 0 42.256 48.794" width="42.256" height="48.794"><polygon fill="#0033ab" points="42.256,12.1985 42.256,36.5955 21.128,48.794 0,36.5955 0,12.1985 21.128,0"></polygon><path fill="white" fill-rule="nonzero" d="M8.86 11.30L8.86 11.30Q8.57 13.49 8.57 14.69Q8.57 15.89 9.31 15.89Q10.06 15.89 11.08 14.78Q12.10 13.68 12.98 11.76Q13.87 9.84 14.06 7.87L14.06 7.87Q14.06 5.88 12.02 3.34L12.02 3.34Q12.50 2.30 13.27 1.48Q14.04 0.65 14.57 0.34L14.57 0.34L15.10 0Q15.98 0 16.62 1.28Q17.26 2.57 17.26 4.13L17.26 4.13Q17.26 6.82 15.70 10.32Q14.14 13.82 11.81 16.37Q9.48 18.91 7.51 18.91L7.51 18.91Q6.24 18.91 5.53 17.99Q4.82 17.06 4.82 15.77Q4.82 14.47 5.14 11.52L5.14 11.52Q2.90 11.30 1.45 10.00Q0 8.69 0 6.78Q0 4.87 1.79 3.23Q3.58 1.58 5.88 1.58L5.88 1.58Q9.41 1.58 9.41 5.98L9.41 5.98Q9.41 7.08 9.24 8.23L9.24 8.23L9.07 9.65Q10.27 9.36 10.99 8.95L10.99 8.95L11.26 8.81Q11.76 9.31 11.78 10.34L11.78 10.34Q10.30 11.04 8.86 11.30ZM5.66 6.00Q5.66 4.75 5.40 4.21Q5.14 3.67 4.36 3.67Q3.58 3.67 2.53 4.57Q1.49 5.47 1.49 6.80Q1.49 8.14 2.60 9.04Q3.72 9.94 5.30 9.94L5.30 9.94Q5.66 7.25 5.66 6.00Z" transform="translate(12.5, 14.941)"></path></svg>